<svg id="Лого" xmlns="http://www.w3.org/2000/svg" width="132" height="60" viewBox="0 0 132 60">
  <defs>
    <style>
      .cls-1 {
        fill: #f3f2f5;
      }

      .cls-1, .cls-2 {
        fill-rule: evenodd;
      }

      .cls-2 {
        fill: #7c4dff;
      }
    </style>
  </defs>
  <path class="cls-1" d="M328.673,49l-9.448,12.5V49h-5.039V69h5.669L329.3,56.5V69h5.039V49h-5.669Zm18.286,15.5A5.5,5.5,0,1,1,352.5,59a5.525,5.525,0,0,1-5.542,5.5m0-16A10.5,10.5,0,1,0,357.537,59,10.572,10.572,0,0,0,346.955,48.5ZM374.671,49v7.5H364.592V49h-5.039V69h5.039V61.5h10.077V69h5.039V49h-5.037Zm25.7,4.9V49H383.74V69h16.629V64.1h-11.59V61.45H399.36v-4.9H388.779V53.9h11.59ZM414.478,59h-6.047V54h6.047a2.5,2.5,0,1,1,0,5m0-10H403.391V69h5.04V64h6.046A7.5,7.5,0,1,0,414.478,49ZM305.116,49H290V69h5.038V54h10.078V69h5.04V49h-5.04Z" transform="translate(-290 -34)"/>
  <path id="Shape_1_copy" data-name="Shape 1 copy" class="cls-2" d="M422,84h0V69h-5.043V79H295.042V74H290V94h5.042V84H422ZM290,44h5.042V39H416.961v5H422V34H290V44Z" transform="translate(-290 -34)"/>
</svg>
